<?xml version="1.0" encoding="utf-8"?>
<!-- Generator: Adobe Illustrator 19.2.1, SVG Export Plug-In . SVG Version: 6.00 Build 0)  -->
<svg version="1.1" id="Layer_1" xmlns="http://www.w3.org/2000/svg" xmlns:xlink="http://www.w3.org/1999/xlink" x="0px" y="0px"
	 viewBox="0 0 612 792" style="enable-background:new 0 0 612 792;" xml:space="preserve">
<style type="text/css">
	.st0{fill:#38833E;stroke:#38833E;stroke-miterlimit:10;}
	.st1{fill:#43150D;stroke:#000000;stroke-width:3;stroke-miterlimit:10;}
	.st2{fill:#F0F0E1;stroke:#000000;stroke-width:3;stroke-miterlimit:10;}
	.st3{opacity:0.35;fill:url(#SVGID_1_);}
	.st4{fill:#E89E23;stroke:#E89E23;stroke-miterlimit:10;}
	.st5{fill:#B42224;stroke:#B42224;stroke-miterlimit:10;}
	.st6{fill:#FFFFFF;}
</style>
<rect x="151.4" y="173.8" class="st0" width="288" height="288"/>
<path class="st1" d="M222.1,208.1c0,0,2.8-14.8,43.9-20.9c29-4.3,45.4-2,66.1,3.3c20.7,5.4,27.8,10.5,31.2,18.9
	c1.5,3.6-11.7,16.9-14.7,18.4s-9.5,11.5-21.6,13.7c-11.6,2.1-33.5,6-64-4.1C228.8,226.2,222.1,208.1,222.1,208.1z"/>
<path class="st2" d="M222.1,215c0,0,0,194.5,4.6,201.7c4.6,7.2,21.4,24.2,42.2,30.5c23.8,7.2,46.1,2.7,55.3,0
	c9.2-2.7,39.2-12.5,39.2-29.6c0-17,0-202.6,0-202.6s-9.2,19.7-39.2,28.7c-26.1,7.8-35.3,2.7-50.7-1.8
	C258.2,237.4,222.1,215,222.1,215z"/>
<linearGradient id="SVGID_1_" gradientUnits="userSpaceOnUse" x1="292.9311" y1="186.5393" x2="292.9311" y2="245.6441">
	<stop  offset="0" style="stop-color:#FFFFFF"/>
	<stop  offset="0.4877" style="stop-color:#000000"/>
</linearGradient>
<path class="st3" d="M222.1,208.1c0,0,3-13.3,44.1-19.4c29-4.3,45.4-2,66.1,3.3c20.7,5.4,27.8,10.5,31.2,18.9
	c1.5,3.6-11.7,16.9-14.7,18.4c-3.1,1.5-9.5,11.5-21.6,13.7c-11.6,2.1-33.5,6-64-4.1C228.9,227.7,222.1,208.1,222.1,208.1z"/>
<path class="st4" d="M330.3,392.2c0,0,36.2,1.2,42.5,0c6.3-1.2,13.1-1.4,20.7-6.5c7.5-5.1,5.9-10.6,13.1-11.3
	c18.9-1.6,32.8-0.7,32.8-0.7v-88.1c0,0-6.1,0.1-24.7-0.4c-10.2-0.3-20.9,0.3-24.6-3.3c-1.8-1.8-4.6-8.6-6.6-12.5
	c-3.9-7.6-18.4-18.3-18.4-18.3s0.7,17.1-5.6,23.4c-6.3,6.3-72-1.3-98.3-0.7c-4.3,0.1-14.5-0.8-13.1,10.7c0.8,6.1,7.6,7.6,7.9,9.8
	c0.6,4.3-7.2,6.8-18.2,20.1c-13.8,16.5-10.7,73.8,0.8,76.2C250.1,392.8,330.3,392.2,330.3,392.2z"/>
<path class="st5" d="M246.4,291c5.7,0,60.7,0.6,67.9,0.6c10.5,0,16.1-1,16.6,7.7c0.4,8-10.1,6.3-20.8,6.5
	c-3.2,0.1-47.3,0.8-52.8,0.9c-5.9,0.1-9.2,2.9-9.3,8.2c-0.2,5.1,3.9,7.9,12.2,8.4c9.5,0.5,48-0.4,58.1-0.2
	c10.1,0.2,13.2,2.8,13.3,11.1c0.1,6.2-8.1,7.9-14.2,7.9c-9,0-61.1-0.6-61.1-0.6s-7.4,1.9-7.1,8.1c0.2,5.5,3.6,9.1,10.5,9.1
	c6.9,0,52.5-0.7,60.9-0.5c8.4,0.2,11.9,3.4,11.8,10.6c-0.1,6.6-2.7,9.9-10.5,10.2c-5.8,0.3-57.5-0.3-57.5-0.3s-4.9-1.2-4.9,6.9
	c0,6,7,6.9,7,6.9s50.3-1.1,54.7,0.2c4.4,1.2,6.5,1.5,6.6,8.2c0.1,4.7-1,5.8-5.9,6.2c-1.9,0.2-45.8-1.4-61.8-0.8
	c-9.6,0.4-42.7,1-47.7-4.6c-5-5.6-14.1-15.3-26-16.9c-12.3-1.6-34.9-1.5-34.9-1.5V282.8c0,0,29.9,3.5,41.2-2.7
	c11.3-6.2,17-14.5,28.4-14.6c0,0,0.4,15.6,2.8,21.2C226.6,293.2,246.4,291,246.4,291z"/>
<path class="st2" d="M222.1,209.5c0,0,32.5,27.2,61.2,30.3c28.7,3.2,49.1-1.5,60.7-9.1c11.5-7.5,19.5-19.3,19.5-19.3
	s12.5,14,16.6,16.4c4.1,2.4-3,4-11.5,11.9S357.8,270,355.2,268s-16.2-16.2-22.8-13.4c-6.6,2.8-22.5,13.9-28.8,13.5
	c-6.3-0.4-18-13-31-15c-13-2-24.6-1.2-34.2,4.8c-9.7,6-26.8,5.2-24.6,1.5c7.1-11.7-5.2-15.3-8.6-19.6c-3.3-4.3-2.2,2.4,7.4-9.5
	C222.3,218.5,222.1,209.5,222.1,209.5z"/>
<g>
	<path class="st6" d="M322.9,212.5c0,2.2-0.3,4.3-0.9,6.1c-0.6,1.8-1.5,3.4-2.7,4.6c-1.1,1.2-2.6,2.1-4.5,2.7
		c-1.9,0.6-4.2,0.9-6.9,0.9h-36c-0.7,0-1.2,0.1-1.5,0.3c-0.3,0.2-0.4,0.5-0.4,0.9c0,0.3,0,0.5,0.1,0.8c0.1,0.3,0.2,0.5,0.3,0.8h-2.7
		c-0.1-0.3-0.2-0.6-0.3-1c-0.1-0.4-0.1-0.7-0.1-1.1c0-1.1,0.4-2,1.1-2.5c0.7-0.5,1.8-0.8,3.2-0.8h35.7c1.3,0,2.5-0.1,3.6-0.2
		c1-0.1,1.9-0.3,2.7-0.6s1.5-0.6,2.1-1s1.1-0.8,1.6-1.4c0.9-1,1.5-2.2,1.9-3.6c0.4-1.4,0.6-3.1,0.6-4.9c0-1.6-0.1-3-0.3-4.2
		c-0.2-1.2-0.5-2.3-1-3.1c-0.4-0.8-1-1.5-1.6-1.9c-0.6-0.4-1.4-0.7-2.3-0.7c-0.7,0-1.3,0.1-1.9,0.4c-0.6,0.2-1.1,0.6-1.5,1.2
		s-0.8,1.3-1,2.2c-0.3,0.9-0.4,2-0.4,3.3v12.2h-3v-12.3c0-1.1-0.1-2.1-0.2-3s-0.4-1.6-0.7-2.2c-0.3-0.6-0.7-1-1.3-1.3
		c-0.5-0.3-1.1-0.5-1.9-0.5c-0.8,0-1.5,0.1-2,0.4c-0.5,0.3-1,0.7-1.3,1.3c-0.3,0.6-0.6,1.3-0.7,2.3c-0.1,0.9-0.2,2-0.2,3.2v12h-14.5
		v-2c0.6-0.6,1-1.3,1.4-2s0.8-1.4,1-2.2c0.3-0.8,0.5-1.5,0.6-2.3s0.2-1.6,0.2-2.3c0-1.2-0.2-2.4-0.6-3.4s-0.9-1.9-1.6-2.6
		c-0.7-0.7-1.5-1.3-2.5-1.7c-1-0.4-2.1-0.6-3.3-0.6s-2.3,0.2-3.4,0.7c-1,0.4-2,1.1-2.8,1.9c-0.8,0.8-1.4,1.8-1.9,2.9
		s-0.7,2.4-0.7,3.8c0,0.2,0,0.5,0,0.7c0,0.3,0,0.5,0.1,0.8h0.1c0.2-0.5,0.4-0.9,0.7-1.3s0.7-0.7,1.1-1s0.9-0.5,1.4-0.6
		s1.1-0.2,1.7-0.2c0.8,0,1.6,0.1,2.2,0.4c0.7,0.3,1.3,0.7,1.8,1.2s0.9,1.1,1.2,1.8c0.3,0.7,0.4,1.5,0.4,2.4c0,0.9-0.1,1.7-0.4,2.5
		c-0.3,0.8-0.7,1.4-1.3,2s-1.2,1-2,1.3c-0.8,0.3-1.6,0.5-2.5,0.5c-0.9,0-1.6-0.1-2.3-0.4s-1.3-0.7-1.9-1.1c-0.6-0.5-1.1-1.1-1.5-1.7
		c-0.4-0.7-0.8-1.4-1-2.1c-0.3-0.8-0.5-1.5-0.6-2.4c-0.1-0.8-0.2-1.6-0.2-2.4c0-2,0.3-3.7,0.9-5.2c0.6-1.5,1.5-2.8,2.5-3.8
		c1.1-1,2.3-1.8,3.7-2.3s2.9-0.8,4.5-0.8c1.5,0,2.9,0.2,4.2,0.7s2.5,1.2,3.4,2.1c1,0.9,1.8,2,2.3,3.4c0.6,1.3,0.9,2.9,0.9,4.6
		c0,0.8-0.1,1.5-0.2,2.3c-0.1,0.8-0.3,1.5-0.5,2.2s-0.5,1.4-0.8,2.1c-0.3,0.7-0.7,1.3-1.1,1.9h7.7v-9.5c0-1.9,0.2-3.5,0.5-4.8
		c0.3-1.2,0.8-2.2,1.5-3c0.6-0.7,1.3-1.2,2.1-1.5c0.8-0.3,1.8-0.5,2.9-0.5c1.4,0,2.6,0.4,3.6,1.1c1,0.7,1.7,1.7,2.1,3h0.1
		c0.2-0.6,0.5-1.2,1-1.7c0.4-0.5,0.9-0.9,1.4-1.3s1.1-0.6,1.8-0.8c0.6-0.2,1.3-0.3,2-0.3c1.2,0,2.2,0.2,3.2,0.7s1.9,1.2,2.6,2.2
		c0.7,1,1.3,2.3,1.7,3.9C322.7,208.4,322.9,210.3,322.9,212.5z M278.7,216.2c0-0.5-0.1-0.9-0.2-1.3s-0.4-0.8-0.6-1.1
		c-0.3-0.3-0.6-0.6-1-0.7s-0.9-0.3-1.4-0.3c-0.5,0-1,0.1-1.4,0.3c-0.4,0.2-0.8,0.4-1.1,0.7c-0.3,0.3-0.5,0.7-0.7,1.1
		s-0.3,0.9-0.3,1.3c0,0.5,0.1,1,0.3,1.5c0.2,0.4,0.4,0.8,0.7,1.1c0.3,0.3,0.7,0.6,1.1,0.7c0.4,0.2,0.9,0.3,1.4,0.3
		c0.4,0,0.9-0.1,1.3-0.2s0.8-0.4,1.1-0.7c0.3-0.3,0.5-0.7,0.7-1.1C278.7,217.4,278.7,216.8,278.7,216.2z"/>
	<path class="st6" d="M313.6,193.5c0,0.4-0.1,0.7-0.2,1c-0.1,0.3-0.3,0.6-0.6,0.8s-0.5,0.4-0.8,0.6c-0.3,0.1-0.7,0.2-1,0.2
		s-0.7-0.1-1-0.2c-0.3-0.1-0.6-0.3-0.8-0.6s-0.4-0.5-0.6-0.8c-0.1-0.3-0.2-0.7-0.2-1c0-0.4,0.1-0.7,0.2-1.1s0.3-0.6,0.6-0.9
		s0.5-0.4,0.8-0.6c0.3-0.1,0.7-0.2,1-0.2s0.7,0.1,1,0.2c0.3,0.1,0.6,0.3,0.8,0.6s0.4,0.5,0.6,0.9
		C313.6,192.8,313.6,193.1,313.6,193.5z"/>
</g>
</svg>
