<?xml version="1.0" encoding="utf-8"?>
<!-- Generator: Adobe Illustrator 22.0.1, SVG Export Plug-In . SVG Version: 6.00 Build 0)  -->
<svg version="1.1" id="Layer_1" xmlns="http://www.w3.org/2000/svg" xmlns:xlink="http://www.w3.org/1999/xlink" x="0px" y="0px"
	 viewBox="0 0 1200 627" style="enable-background:new 0 0 1200 627;" xml:space="preserve">
<style type="text/css">
	.st0{fill:#FFFFFF;}
</style>
<g>
	<path class="st0" d="M225.7,494.4L62,320.5l163.7-174l32.9,34.9L130.3,317.5v5l128.3,136.9L225.7,494.4z"/>
	<path class="st0" d="M391.8,579l-41.5-20.1L548.7,61.8l42.1,20.1L391.8,579z"/>
	<path class="st0" d="M918.9,479.8l-187.8,0c-49.7,0-83.1-45.1-83.1-96.4c0-46.7,34-88.7,82.5-89.4h125.7v-32.7
		c0-35-13.1-46.7-45.8-46.7H696.4V161h125.7c44.5,0,79.9,42.8,79.9,94.9l-0.5,172.4l17.4,0L918.9,479.8z M856.1,343.7h-122
		c-17,0-38.2,16.3-38.2,42.8c0,21.8,17.9,42,35.6,42h124.6V343.7z"/>
	<path class="st0" d="M1017.2,494.4l-32.9-34.9l128.3-136.9v-5L984.3,181.4l32.9-34.9l163.2,174L1017.2,494.4z"/>
</g>
</svg>
